<svg xmlns="http://www.w3.org/2000/svg" viewBox="0 0 261.49 93.87"><defs><style>.cls-1{fill:#fff}</style></defs><g id="Layer_2" data-name="Layer 2"><g id="Layer_1-2" data-name="Layer 1"><path class="cls-1" d="M85.49 22.73h6.6c3.64 0 6.43 1.35 6.43 5.21 0 3-1.67 4.32-3.16 4.8 1.94.45 3.66 1.78 3.66 5.1 0 4-3 5.7-6.56 5.7h-7zm6.37 8.82c2.29 0 3.5-.7 3.5-2.9s-1-3-3.44-3h-3.16v5.89zm.43 9.22c2.48 0 3.55-1.1 3.55-3.33 0-2.45-1.41-3.21-3.86-3.21h-3.22v6.54zm9.89-18.04h11.3v3.07h-8v5.36h5.79v3h-5.77v6.44h8.41v3h-11.73zm16.26 20.86h-3.1l6.09-21h3.19l6.09 21h-3.33l-1.35-5h-6.21zm6.12-10.43c-.65-2.34-1.16-4.09-1.58-6.06h-.06c-.45 2-1 3.72-1.6 6l-.71 2.57h4.63zm8.44 3.41V22.73h3.32v13.53c0 3.18 1 4.74 3.58 4.74s3.56-1.56 3.56-4.68V22.73h3.18v13.78c0 4.54-2 7.44-6.79 7.44S133 41.14 133 36.57zm21.13-10.77h-5.19v-3.07h13.67v3.07h-5.16v17.79h-3.32zm11.19-3.07h3.32v20.86h-3.32zm7.38 0h11.11v3.07H176v5.64h5.63v3H176v9.16h-3.3zm13.47 13.84V22.73h3.33v13.53c0 3.18 1 4.74 3.58 4.74s3.55-1.56 3.55-4.68V22.73h3.19v13.78c0 4.54-2 7.44-6.8 7.44s-6.85-2.81-6.85-7.38zm17.34-13.84h3.32V40.6h8v3h-11.32zM85.49 50h5c5.7 0 9.22 2.71 9.22 10.38s-3.61 10.48-9.22 10.48h-5zm5.39 17.9c3.89 0 5.49-2.05 5.49-7.52 0-5.3-1.6-7.33-5.52-7.33h-2v14.82zM102.77 50h11.31v3.08h-8v5.32h5.78v3h-5.76v6.46h8.4v3h-11.73zm13.47 16.18L119 64.8c.93 2 2.39 3.5 4.59 3.5s3.35-1 3.35-2.71c0-2.08-1.88-3-4-3.94-2.7-1.25-5.86-2.54-5.86-6.57 0-3.27 2.62-5.5 6.14-5.5s5.47 1.94 6.66 4.54l-2.79 1.44c-.82-1.75-1.92-3.05-3.92-3.05-1.72 0-2.82.93-2.82 2.43 0 2 1.8 3 3.83 3.91 2.74 1.24 6 2.6 6 6.63 0 3.1-2.4 5.72-6.6 5.72-3.73 0-5.98-2.06-7.34-5.02zm20.92-13.13H132V50h13.67v3.08h-5.15v17.75h-3.33zM148.35 50h3.32v20.83h-3.32zm7.38 0h3.58L165 61.05c.7 1.36 1.07 2.12 1.77 3.64h.06V50h3v20.83h-3.08l-6.2-11.78c-.67-1.32-1-2-1.75-3.52h-.05v15.3h-3zm19.7 20.83h-3.1l6.09-20.94h3.19l6.09 20.94h-3.33l-1.35-5h-6.2zm6.12-10.43c-.65-2.34-1.16-4.08-1.58-6.06h-.05c-.46 2-1 3.72-1.61 6l-.71 2.56h4.63zM194 53.05h-5.19V50h13.67v3.08h-5.16v17.75H194zM205.2 50h3.32v20.83h-3.32zm6.54 10.4c0-7.24 3.46-10.82 7.92-10.82s7.89 3.58 7.89 10.82-3.47 10.83-7.89 10.83-7.92-3.58-7.92-10.83zm12.46 0c0-5.07-1.67-7.75-4.54-7.75s-4.6 2.68-4.6 7.75 1.7 7.81 4.6 7.81 4.54-2.73 4.54-7.81zm6.39-10.4h3.58l5.67 11.08c.7 1.36 1.07 2.12 1.77 3.64h.06V50h3v20.83h-3.08l-6.2-11.78c-.67-1.32-1-2-1.74-3.52h-.06v15.3h-3zm16.91 16.18l2.8-1.38c.93 2 2.39 3.5 4.59 3.5s3.35-1 3.35-2.71c0-2.08-1.88-3-4-3.94-2.7-1.25-5.86-2.54-5.86-6.57 0-3.27 2.62-5.5 6.14-5.5s5.47 1.94 6.66 4.54l-2.8 1.44c-.81-1.75-1.91-3.05-3.91-3.05-1.72 0-2.82.93-2.82 2.43 0 2 1.8 3 3.83 3.91 2.74 1.24 6 2.6 6 6.63 0 3.1-2.4 5.72-6.6 5.72-3.77 0-6.02-2.06-7.38-5.02zm-185.59.4a15 15 0 01-15 15H19.06V55.43h-4.64v30.72h32.46a19.47 19.47 0 0019.58-19.57c0-10.57-8.42-19-19.58-18.84H0v4.55h46.88c8.57 0 15.03 6.14 15.03 14.29z"/><path class="cls-1" d="M47.62 40H0v4.56h47.62a22 22 0 0122 22c0 12.32-10.08 22.74-22 22.74H11.18V55.43H6.57v38.44h41.05c14.4 0 26.56-12.5 26.56-27.29A26.6 26.6 0 0047.62 40zM14.42 7.72h30a18.09 18.09 0 0112.97 30.76c-.82-.29-1.66-.54-2.51-.76s-1.61-.35-2.43-.51l-.54-.08.46-.32a13.54 13.54 0 00-7.91-24.55h-25.4v24.57h-4.61z"/><path class="cls-1" d="M6.57 36.83h4.61V4.55h34c11.14 0 20.55 9.75 20.55 21.29a20.55 20.55 0 01-5.4 13.86 28.44 28.44 0 014 2.3 25.07 25.07 0 005.93-16.16C70.29 11.83 58.8 0 45.19 0H6.57z"/></g></g></svg>