<svg width="20" height="20" fill="none" xmlns="http://www.w3.org/2000/svg"><path d="M9.542.333a.482.482 0 01.916 0l2.03 6.249c.065.198.25.333.459.333h6.57c.467 0 .661.597.283.871l-5.315 3.862a.482.482 0 00-.175.54l2.03 6.248a.482.482 0 01-.741.538l-5.316-3.861a.482.482 0 00-.566 0L4.4 18.974a.482.482 0 01-.741-.538l2.03-6.249a.482.482 0 00-.175-.539L.2 7.786a.482.482 0 01.283-.871h6.57a.482.482 0 00.458-.333L9.541.333z" fill="#EAC043"/><path d="M9.542.333a.482.482 0 01.916 0l2.03 6.249c.065.198.25.333.459.333h6.57c.467 0 .661.597.283.871l-5.315 3.862a.482.482 0 00-.175.54l2.03 6.248a.482.482 0 01-.741.538l-5.316-3.861a.482.482 0 00-.566 0L4.4 18.974a.482.482 0 01-.741-.538l2.03-6.249a.482.482 0 00-.175-.539L.2 7.786a.482.482 0 01.283-.871h6.57a.482.482 0 00.458-.333L9.541.333z" fill="url(#paint0_linear_1302_1320)"/><path fill-rule="evenodd" clip-rule="evenodd" d="M10 2.042L8.428 6.879a1.446 1.446 0 01-1.375 1H1.966l4.115 2.99c.507.368.72 1.02.526 1.616l-1.572 4.838 4.115-2.99a1.446 1.446 0 011.7 0l4.115 2.99-1.572-4.838a1.446 1.446 0 01.525-1.617l4.116-2.99h-5.087a1.446 1.446 0 01-1.375-.999L10 2.042zm.458-1.709a.482.482 0 00-.916 0l-2.03 6.249a.482.482 0 01-.459.333H.483a.482.482 0 00-.283.871l5.315 3.862c.169.123.24.34.175.54l-2.03 6.248a.482.482 0 00.741.538l5.316-3.861a.482.482 0 01.566 0l5.316 3.861a.482.482 0 00.741-.538l-2.03-6.249a.482.482 0 01.175-.539L19.8 7.786a.482.482 0 00-.283-.871h-6.57a.482.482 0 01-.458-.333L10.459.333z" fill="#000" fill-opacity=".15"/><defs><linearGradient id="paint0_linear_1302_1320" x1="6.627" y1="7.115" x2="15.783" y2="18.682" gradientUnits="userSpaceOnUse"><stop stop-color="#EF9171" stop-opacity=".1"/><stop offset="1" stop-color="#FFFF08" stop-opacity=".2"/></linearGradient></defs></svg>