<svg width="202" height="24" fill="none" xmlns="http://www.w3.org/2000/svg"><path d="M13.561 10.858h10.858V0h-.125C18.366 0 13.56 4.805 13.56 10.733v.125zm10.858 13.075H13.56V13.075h.125c5.928 0 10.733 4.805 10.733 10.733v.125zM10.46 24C4.683 24 0 19.316 0 13.54V.502h10.46V24zm49.502-5.35c1.169 0 2.041-.393 2.618-1.181s.865-1.804.865-3.047c0-1.275-.292-2.294-.876-3.06-.584-.764-1.453-1.147-2.607-1.147-.79 0-1.443.179-1.956.537-.513.359-.893.852-1.142 1.482-.249.629-.373 1.358-.373 2.188 0 1.28.294 2.306.882 3.075.588.769 1.45 1.154 2.59 1.154m0 2.227c-1.222 0-2.281-.276-3.178-.825a5.52 5.52 0 01-2.075-2.279c-.486-.968-.729-2.086-.729-3.352 0-1.275.248-2.396.746-3.365.497-.968 1.195-1.722 2.092-2.26.897-.54 1.945-.81 3.143-.81 1.221 0 2.28.276 3.178.826a5.563 5.563 0 012.08 2.273c.49.965.735 2.077.735 3.336 0 1.274-.247 2.395-.74 3.364a5.559 5.559 0 01-2.086 2.272c-.898.547-1.953.82-3.167.82zM71.032 3.917h-2.363v16.622h2.363V3.917zm11.884 16.621v-8.785h-.271V3.916h2.374v16.622h-2.103zm-3.313-1.797c.777 0 1.41-.185 1.9-.555.49-.369.848-.878 1.074-1.526.227-.648.34-1.394.34-2.239 0-.844-.115-1.59-.346-2.238-.23-.649-.584-1.154-1.063-1.516-.478-.362-1.087-.543-1.826-.543-.784 0-1.428.193-1.933.577-.505.384-.88.9-1.125 1.55-.245.648-.368 1.371-.368 2.17 0 .807.123 1.536.368 2.188.245.652.614 1.17 1.108 1.555.494.384 1.117.577 1.871.577m-.327 2.137c-1.139 0-2.12-.283-2.946-.848-.826-.565-1.463-1.336-1.912-2.313-.448-.976-.672-2.074-.672-3.296 0-1.229.226-2.327.678-3.296.453-.969 1.095-1.733 1.928-2.295.833-.562 1.823-.843 2.969-.843 1.153 0 2.124.281 2.911.843.788.562 1.383 1.328 1.787 2.3.403.973.605 2.07.605 3.291 0 1.222-.203 2.318-.61 3.29-.408.973-1.007 1.744-1.799 2.313-.791.569-1.771.854-2.94.854m9.974-7.621h8.718V15.1h-8.718v-1.843zm4.353 7.621c-1.214 0-2.279-.266-3.195-.797a5.535 5.535 0 01-2.137-2.227c-.508-.954-.763-2.06-.763-3.32 0-1.334.25-2.49.752-3.471.502-.98 1.2-1.737 2.097-2.273.897-.535 1.942-.802 3.133-.802 1.243 0 2.303.288 3.177.865.875.576 1.528 1.396 1.962 2.46.434 1.062.605 2.325.515 3.787h-2.364v-.86c-.015-1.417-.284-2.465-.808-3.143-.524-.679-1.321-1.017-2.392-1.017-1.183 0-2.073.373-2.668 1.119-.596.746-.893 1.825-.893 3.234 0 1.341.297 2.38.893 3.115.595.735 1.454 1.103 2.578 1.103.739 0 1.377-.168 1.916-.504.54-.335.96-.816 1.261-1.441l2.318.735c-.475 1.093-1.195 1.939-2.16 2.538-.964.6-2.039.9-3.222.9m8.073-.34V8.326h2.103v2.963l-.294-.384a4.62 4.62 0 01.588-1.08c.241-.328.52-.598.836-.809.31-.226.655-.401 1.035-.526a4.796 4.796 0 012.324-.164v2.217a3.797 3.797 0 00-1.328-.09 2.926 2.926 0 00-1.341.463 2.94 2.94 0 00-.91.905 3.777 3.777 0 00-.48 1.181 6.215 6.215 0 00-.148 1.374v6.163h-2.385zm17.045.339c-1.628 0-3.015-.356-4.161-1.069-1.146-.712-2.023-1.705-2.628-2.979-.608-1.274-.911-2.751-.911-4.432 0-1.681.303-3.16.911-4.433.605-1.274 1.482-2.268 2.628-2.98 1.146-.712 2.533-1.068 4.161-1.068 1.878 0 3.432.474 4.665 1.425 1.232.95 2.089 2.227 2.572 3.833l-2.397.644c-.317-1.138-.881-2.03-1.691-2.68-.81-.648-1.86-.972-3.149-.972-1.153 0-2.114.26-2.883.78-.769.52-1.348 1.248-1.736 2.183-.388.934-.582 2.023-.582 3.268-.007 1.243.182 2.333.571 3.267.388.935.968 1.663 1.741 2.183.773.52 1.736.78 2.889.78 1.289 0 2.339-.326 3.149-.978.81-.652 1.374-1.544 1.691-2.674l2.397.644c-.483 1.606-1.34 2.883-2.572 3.833-1.233.95-2.787 1.425-4.665 1.425m9.725-.339V8.326h2.103v2.963l-.294-.384a4.62 4.62 0 01.588-1.08c.241-.328.52-.598.836-.809.31-.226.655-.401 1.035-.526a4.796 4.796 0 012.324-.164v2.217a3.797 3.797 0 00-1.328-.09 2.926 2.926 0 00-1.341.463 2.94 2.94 0 00-.91.905 3.777 3.777 0 00-.48 1.181 6.22 6.22 0 00-.148 1.374v6.163h-2.385zm9.577-7.282h8.718V15.1h-8.718v-1.843zm4.354 7.621c-1.215 0-2.279-.266-3.195-.797a5.53 5.53 0 01-2.137-2.227c-.509-.954-.763-2.06-.763-3.32 0-1.334.25-2.49.752-3.471.501-.98 1.2-1.737 2.097-2.273.897-.535 1.941-.802 3.132-.802 1.244 0 2.303.288 3.178.865.874.576 1.528 1.396 1.962 2.46.433 1.062.605 2.325.514 3.787h-2.363v-.86c-.015-1.417-.285-2.465-.808-3.143-.524-.679-1.322-1.017-2.393-1.017-1.183 0-2.072.373-2.668 1.12-.596.745-.893 1.824-.893 3.233 0 1.342.297 2.38.893 3.115.596.735 1.455 1.103 2.578 1.103.739 0 1.378-.168 1.917-.504.539-.335.959-.816 1.261-1.441l2.317.735c-.474 1.093-1.194 1.939-2.159 2.538-.965.6-2.04.9-3.222.9m11.714-1.934c.671 0 1.247-.119 1.73-.357a3.34 3.34 0 001.165-.91c.294-.37.486-.753.577-1.153a4.21 4.21 0 00.22-1.221c.018-.452.028-.814.028-1.085l.769.282c-.746.113-1.425.215-2.036.305-.61.09-1.162.18-1.656.266-.494.087-.933.19-1.317.31-.324.114-.613.25-.866.408a1.9 1.9 0 00-.598.577c-.147.226-.221.501-.221.825 0 .317.079.61.237.876.159.268.4.481.724.64.324.158.739.237 1.244.237m-.419 1.934c-.904 0-1.662-.169-2.272-.504-.611-.335-1.072-.78-1.385-1.334a3.65 3.65 0 01-.47-1.826c0-.618.109-1.161.328-1.628.219-.468.543-.865.973-1.194.429-.327.957-.593 1.583-.796a17.23 17.23 0 011.843-.42c.686-.12 1.408-.232 2.165-.338.758-.105 1.51-.211 2.256-.317l-.859.475c.015-.957-.187-1.668-.605-2.131-.419-.464-1.137-.696-2.154-.696-.641 0-1.229.149-1.764.447-.535.298-.909.79-1.12 1.475l-2.205-.678c.302-1.048.876-1.881 1.724-2.5.849-.617 1.978-.926 3.388-.926 1.092 0 2.044.187 2.854.56a3.54 3.54 0 011.781 1.77c.197.4.317.821.362 1.266.046.444.068.923.068 1.436v7.52h-2.092v-2.794l.407.362c-.505.935-1.148 1.63-1.928 2.087-.78.455-1.74.684-2.878.684m16.419-.34a10.11 10.11 0 01-2.262.192c-.738-.023-1.398-.166-1.978-.43a2.692 2.692 0 01-1.312-1.243 3.584 3.584 0 01-.424-1.544 49.749 49.749 0 01-.028-1.78v-10.8h2.374V15.62c0 .49.006.916.017 1.278.012.361.089.667.232.916.271.467.703.733 1.295.796.592.065 1.287.04 2.086-.072v2zm-8.345-12.213h8.345v1.9h-8.345v-1.9zm11.137.001h2.363v12.212h-2.363V8.327zm-.093-3.116c0-.704.554-1.275 1.239-1.275h.072c.685 0 1.24.57 1.24 1.275s-.555 1.276-1.24 1.276h-.072c-.685 0-1.239-.57-1.239-1.276zm9.151 15.328l-4.433-12.213h2.386l3.245 9.25 3.245-9.25h2.387l-4.433 12.213h-2.397zm9.475-7.282h8.718V15.1h-8.718v-1.843zm4.354 7.621c-1.214 0-2.278-.266-3.194-.797a5.524 5.524 0 01-2.137-2.227c-.509-.954-.764-2.06-.764-3.32 0-1.334.251-2.49.752-3.471.501-.98 1.201-1.737 2.098-2.273.897-.535 1.941-.802 3.132-.802 1.244 0 2.303.288 3.178.865.874.576 1.528 1.396 1.961 2.46.434 1.062.605 2.325.515 3.787h-2.363v-.86c-.016-1.417-.285-2.465-.809-3.143-.524-.679-1.321-1.017-2.391-1.017-1.184 0-2.074.373-2.669 1.12-.595.745-.893 1.824-.893 3.233 0 1.342.298 2.38.893 3.115.595.735 1.455 1.103 2.578 1.103.738 0 1.377-.168 1.917-.504.539-.335.959-.816 1.261-1.441l2.318.735c-.475 1.093-1.195 1.939-2.16 2.538-.966.6-2.039.9-3.223.9M46.097 12.398l.02-.021 7.598-8.46h-2.977l-7.576 8.469-.008.012.008.011 7.576 8.47h2.977l-7.599-8.46-.019-.021zM41.65 3.93h-2.46v16.948h2.46V3.93z" fill="#fff"/></svg>